<?xml version="1.0" encoding="UTF-8" standalone="no"?>
<!-- Generator: Adobe Illustrator 22.1.0, SVG Export Plug-In . SVG Version: 6.00 Build 0)  -->

<svg
   xmlns:dc="http://purl.org/dc/elements/1.1/"
   xmlns:cc="http://creativecommons.org/ns#"
   xmlns:rdf="http://www.w3.org/1999/02/22-rdf-syntax-ns#"
   xmlns:svg="http://www.w3.org/2000/svg"
   xmlns="http://www.w3.org/2000/svg"
   xmlns:sodipodi="http://sodipodi.sourceforge.net/DTD/sodipodi-0.dtd"
   xmlns:inkscape="http://www.inkscape.org/namespaces/inkscape"
   version="1.1"
   id="Слой_1"
   x="0px"
   y="0px"
   viewBox="0 0 220.05939 120"
   xml:space="preserve"
   sodipodi:docname="logo_1.svg"
   width="220.05939"
   height="120"
   inkscape:version="0.92.3 (2405546, 2018-03-11)"><metadata
   id="metadata23"><rdf:RDF><cc:Work
       rdf:about=""><dc:format>image/svg+xml</dc:format><dc:type
         rdf:resource="http://purl.org/dc/dcmitype/StillImage" /></cc:Work></rdf:RDF></metadata><defs
   id="defs21" /><sodipodi:namedview
   pagecolor="#ffffff"
   bordercolor="#666666"
   borderopacity="1"
   objecttolerance="10"
   gridtolerance="10"
   guidetolerance="10"
   inkscape:pageopacity="0"
   inkscape:pageshadow="2"
   inkscape:window-width="1853"
   inkscape:window-height="1025"
   id="namedview19"
   showgrid="false"
   inkscape:zoom="3.9563022"
   inkscape:cx="115.67837"
   inkscape:cy="76.899751"
   inkscape:window-x="67"
   inkscape:window-y="27"
   inkscape:window-maximized="1"
   inkscape:current-layer="Слой_1" />
<style
   type="text/css"
   id="style2">
	.st0{fill:#5B14C9;}
	.st1{fill:#763DCA;}
</style>
<g
   id="g9"
   transform="translate(-171.94062,-145)">
	<g
   id="g7">
		<g
   id="Layer0_1_MEMBER_0_FILL">
			<path
   class="st0"
   d="m 260,185.1 c -0.9,0.7 -1.8,1.5 -2.6,2.3 -4.9,4.9 -7.4,10.8 -7.4,17.7 0,6.9 2.4,12.8 7.4,17.7 0.8,0.8 1.7,1.6 2.6,2.4 4.3,3.3 9.3,4.9 15,4.9 5.7,0 10.7,-1.6 15,-4.9 v 4.9 h 10 v -24.3 c 0,-0.1 0,-0.1 0,-0.1 v -0.9 c 0,-0.1 0,-0.2 0,-0.3 v -24.4 h -10 v 5 c -4.3,-3.3 -9.3,-5 -15,-5 -5.7,0 -10.7,1.6 -15,5 m 4.4,9.3 c 2.9,-2.9 6.4,-4.4 10.6,-4.4 4.2,0 7.7,1.5 10.6,4.4 2.8,2.8 4.2,6.1 4.4,10.1 0,0 0,0.1 0,0.1 v 0.8 c 0,0 0,0.1 0,0.1 -0.1,3.9 -1.6,7.3 -4.4,10.1 -2.9,2.9 -6.5,4.4 -10.6,4.4 -4.1,0 -7.7,-1.5 -10.6,-4.4 -2.8,-2.9 -4.3,-6.3 -4.4,-10.3 v -0.8 c 0.1,-3.8 1.6,-7.2 4.4,-10.1 M 185,145.1 c -2.3,0 -4.4,0.8 -6.3,2.3 -1.9,1.5 -3,3.4 -3.5,5.6 -0.5,2.3 -0.3,4.5 0.8,6.6 l 14,27.9 h 0.1 l 8.8,17.6 -7.5,14.9 v 0 l -15.3,30.6 c -1.1,2.1 -1.3,4.3 -0.8,6.6 0.5,2.3 1.6,4.1 3.5,5.6 1.8,1.5 3.9,2.2 6.3,2.2 h 70 c 1.4,0 2.5,-0.5 3.5,-1.5 1,-1 1.5,-2.1 1.5,-3.5 v -25 h -10 v 10 h -48.8 l 20,-40 -20,-40 H 250 v 10 h 10 v -25 c 0,-1.4 -0.5,-2.5 -1.5,-3.5 -1,-1 -2.2,-1.5 -3.5,-1.5 h -70 m 145,45.1 h 15 v -10 h -40 v 10 h 15 v 40 h 10 v -40 m 30,-10 h -10 v 50 h 10 v -20 h 20 v 20 h 10 v -50 h -10 v 20 h -20 z"
   id="path4"
   inkscape:connector-curvature="0"
   style="fill:#5b14c9" />
		</g>
	</g>
</g>
<g
   id="g16"
   transform="translate(-167.94062,-145)">
	<g
   id="g14">
		<g
   id="Layer0_1_MEMBER_1_FILL">
			<path
   class="st1"
   d="m 270,180.1 c -5.7,0 -10.7,1.7 -15,5 -0.9,0.7 -1.8,1.5 -2.6,2.3 -4.9,4.9 -7.4,10.8 -7.4,17.7 0,6.9 2.4,12.8 7.4,17.7 0.8,0.8 1.7,1.6 2.6,2.4 4.3,3.3 9.3,4.9 15,4.9 5.7,0 10.7,-1.6 15,-4.9 v 4.9 h 10 v -24.3 c 0,-0.1 0,-0.1 0,-0.1 v -0.9 c 0,-0.1 0,-0.2 0,-0.3 v -24.4 h -10 v 5 c -4.3,-3.4 -9.3,-5 -15,-5 m -10.6,14.3 c 2.9,-2.9 6.4,-4.4 10.6,-4.4 4.2,0 7.7,1.5 10.6,4.4 2.8,2.8 4.2,6.1 4.4,10.1 0,0 0,0.1 0,0.1 v 0.8 c 0,0 0,0.1 0,0.1 -0.1,3.9 -1.6,7.3 -4.4,10.1 -2.9,2.9 -6.5,4.4 -10.6,4.4 -4.1,0 -7.7,-1.5 -10.6,-4.4 -2.8,-2.9 -4.3,-6.3 -4.4,-10.3 v -0.8 c 0.1,-3.8 1.6,-7.2 4.4,-10.1 M 180,145.1 c -2.3,0 -4.4,0.8 -6.3,2.3 -1.9,1.5 -3,3.4 -3.5,5.6 -0.5,2.3 -0.3,4.5 0.8,6.6 l 14,27.9 h 0.1 l 8.8,17.6 -7.5,14.9 v 0 l -15.3,30.6 c -1.1,2.1 -1.3,4.3 -0.8,6.6 0.5,2.3 1.6,4.1 3.5,5.6 1.8,1.5 3.9,2.2 6.3,2.2 h 70 c 1.4,0 2.6,-0.5 3.6,-1.5 1,-1 1.4,-2.1 1.4,-3.5 v -25 h -10 v 10 h -48.8 l 20,-40 -20,-40 H 245 v 10 h 10 v -25 c 0,-1.4 -0.5,-2.5 -1.4,-3.5 -1,-1 -2.2,-1.5 -3.6,-1.5 h -70 m 145,45.1 h 15 v -10 h -40 v 10 h 15 v 40 h 10 v -40 m 30,-10 h -10 v 50 h 10 v -20 h 20 v 20 h 10 v -50 h -10 v 20 h -20 z"
   id="path11"
   inkscape:connector-curvature="0"
   style="fill:#763dca" />
		</g>
	</g>
</g>
</svg>