<?xml version="1.0" encoding="UTF-8" standalone="no"?>
<!-- Generator: Adobe Illustrator 22.1.0, SVG Export Plug-In . SVG Version: 6.00 Build 0)  -->

<svg
   xmlns:dc="http://purl.org/dc/elements/1.1/"
   xmlns:cc="http://creativecommons.org/ns#"
   xmlns:rdf="http://www.w3.org/1999/02/22-rdf-syntax-ns#"
   xmlns:svg="http://www.w3.org/2000/svg"
   xmlns="http://www.w3.org/2000/svg"
   xmlns:sodipodi="http://sodipodi.sourceforge.net/DTD/sodipodi-0.dtd"
   xmlns:inkscape="http://www.inkscape.org/namespaces/inkscape"
   version="1.1"
   id="Слой_1"
   x="0px"
   y="0px"
   viewBox="0 0 303.03772 346.10001"
   xml:space="preserve"
   sodipodi:docname="favicon.svg"
   width="303.03772"
   height="346.10001"
   inkscape:version="0.92.3 (2405546, 2018-03-11)"><metadata
   id="metadata23"><rdf:RDF><cc:Work
       rdf:about=""><dc:format>image/svg+xml</dc:format><dc:type
         rdf:resource="http://purl.org/dc/dcmitype/StillImage" /></cc:Work></rdf:RDF></metadata><defs
   id="defs21" /><sodipodi:namedview
   pagecolor="#ffffff"
   bordercolor="#666666"
   borderopacity="1"
   objecttolerance="10"
   gridtolerance="10"
   guidetolerance="10"
   inkscape:pageopacity="0"
   inkscape:pageshadow="2"
   inkscape:window-width="1853"
   inkscape:window-height="1025"
   id="namedview19"
   showgrid="false"
   inkscape:zoom="0.59"
   inkscape:cx="151.53772"
   inkscape:cy="173.1"
   inkscape:window-x="67"
   inkscape:window-y="27"
   inkscape:window-maximized="1"
   inkscape:current-layer="Слой_1" />
<style
   type="text/css"
   id="style2">
	.st0{fill:#5B14C9;}
	.st1{fill:#763DCA;}
</style>
<g
   id="g9"
   transform="translate(-123.46228,-27)">
	<g
   id="g7">
		<g
   id="Layer0_1_MEMBER_0_FILL">
			<path
   class="st0"
   d="M 426.5,128.2 M 166.9,27.2 c -6.6,0 -12.7,2.3 -18.2,6.6 -5.5,4.3 -8.7,9.8 -10.1,16.2 -1.4,6.6 -0.9,13 2.3,19 l 40.4,80.5 h 0.3 l 25.4,50.8 -21.6,43 v 0 l -44.1,88.3 c -3.2,6.1 -3.7,12.4 -2.3,19 1.4,6.6 4.6,11.8 10.1,16.2 5.2,4.3 11.2,6.3 18.2,6.3 h 201.9 c 4,0 7.2,-1.4 10.1,-4.3 2.9,-2.9 4.3,-6.1 4.3,-10.1 v -72.1 h -28.8 v 28.8 H 213.9 L 271.6,200 213.9,84.6 h 140.5 v 28.8 h 28.8 v -72 c 0,-4 -1.4,-7.2 -4.3,-10.1 C 376,28.4 372.6,27 368.8,27 H 166.9"
   id="path4"
   inkscape:connector-curvature="0"
   style="fill:#5b14c9" />
		</g>
	</g>
</g>
<g
   id="g16"
   transform="translate(-123.46228,-27)">
	<g
   id="g14">
		<g
   id="Layer0_1_MEMBER_1_FILL">
			<path
   class="st1"
   d="m 412.1,128.2 m 0,0 M 152.5,27.2 c -6.6,0 -12.7,2.3 -18.2,6.6 -5.5,4.3 -8.7,9.8 -10.1,16.2 -1.4,6.6 -0.9,13 2.3,19 l 40.4,80.5 h 0.3 l 25.4,50.8 -21.6,43 v 0 l -44.1,88.3 c -3.2,6.1 -3.7,12.4 -2.3,19 1.4,6.6 4.6,11.8 10.1,16.2 5.2,4.3 11.2,6.3 18.2,6.3 h 201.9 c 4,0 7.5,-1.4 10.4,-4.3 2.9,-2.9 4,-6.1 4,-10.1 v -72.1 h -28.8 v 28.8 H 199.5 L 257.2,200 199.5,84.6 H 340 v 28.8 h 28.8 v -72 c 0,-4 -1.4,-7.2 -4,-10.1 C 361.9,28.4 358.5,27 354.4,27 H 152.5"
   id="path11"
   inkscape:connector-curvature="0"
   style="fill:#763dca" />
		</g>
	</g>
</g>
</svg>